<?xml version="1.0" encoding="iso-8859-1"?>
<!-- Generator: Adobe Illustrator 19.0.0, SVG Export Plug-In . SVG Version: 6.00 Build 0)  -->
<svg version="1.1" id="Capa_1" xmlns="http://www.w3.org/2000/svg" xmlns:xlink="http://www.w3.org/1999/xlink" x="0px" y="0px"
	 viewBox="0 0 468.293 468.293" style="enable-background:new 0 0 468.293 468.293;" xml:space="preserve">
<circle style="fill:#44C4A1;" cx="234.146" cy="234.146" r="234.146"/>
<circle style="fill:#EBF0F3;" cx="234.146" cy="234.146" r="201.678"/>
<polygon style="fill:#E56353;" points="254.127,214.166 339.668,339.668 214.166,254.127 128.624,128.624 "/>
<g>
	<polygon style="fill:#D5D6DB;" points="256,234.146 234.146,383.376 212.293,234.146 234.146,84.917 	"/>
	<polygon style="fill:#D5D6DB;" points="234.146,256 84.917,234.146 234.146,212.293 383.376,234.146 	"/>
</g>
<circle style="fill:#3A556A;" cx="234.146" cy="234.146" r="15.61"/>
<g>
	<rect x="227.902" y="44.956" style="fill:#64798A;" width="12.488" height="12.488"/>
	<rect x="227.902" y="410.849" style="fill:#64798A;" width="12.488" height="12.488"/>
	
		<rect x="357.384" y="98.748" transform="matrix(-0.7071 0.7071 -0.7071 -0.7071 694.991 -77.8915)" style="fill:#64798A;" width="12.488" height="12.488"/>
	
		<rect x="98.418" y="357.051" transform="matrix(-0.7071 0.7071 -0.7071 -0.7071 435.5566 546.1762)" style="fill:#64798A;" width="12.488" height="12.488"/>
	<rect x="410.849" y="227.902" style="fill:#64798A;" width="12.488" height="12.488"/>
	<rect x="44.956" y="227.902" style="fill:#64798A;" width="12.488" height="12.488"/>
	
		<rect x="357.046" y="357.376" transform="matrix(-0.7071 0.7071 -0.7071 -0.7071 877.2926 363.8533)" style="fill:#64798A;" width="12.488" height="12.488"/>
	
		<rect x="98.755" y="98.423" transform="matrix(-0.7071 0.7071 -0.7071 -0.7071 253.255 104.4314)" style="fill:#64798A;" width="12.488" height="12.488"/>
</g>
<g>
</g>
<g>
</g>
<g>
</g>
<g>
</g>
<g>
</g>
<g>
</g>
<g>
</g>
<g>
</g>
<g>
</g>
<g>
</g>
<g>
</g>
<g>
</g>
<g>
</g>
<g>
</g>
<g>
</g>
</svg>
