<?xml version="1.0" encoding="utf-8"?>
<!-- Generator: Adobe Illustrator 19.0.0, SVG Export Plug-In . SVG Version: 6.00 Build 0)  -->
<svg version="1.1" id="Layer_1" xmlns="http://www.w3.org/2000/svg" xmlns:xlink="http://www.w3.org/1999/xlink" x="0px" y="0px"
	 viewBox="0 0 15 15" style="enable-background:new 0 0 15 15;" xml:space="preserve">
<style type="text/css">
	.st0{fill:#8B5E3C;}
	.st1{fill:#FFFFFF;}
	.st2{fill:#D9D9D8;}
	.st3{fill:#333333;}
	.st4{fill:#E6E7E8;}
	.st5{fill:#D8778E;}
	.st6{fill:#85BEB8;}
	.st7{opacity:0.53;fill:#D9D9D8;}
</style>
<path id="XMLID_8_" class="st0" d="M7.6,2.5C5.6,2.5,4,4.2,4,6.2c0,2.2,3.6,6.3,3.6,6.3s3.6-4,3.6-6.3C11.3,4.2,9.7,2.5,7.6,2.5z
	 M7.6,8.3c-1.2,0-2.2-1-2.2-2.2s1-2.2,2.2-2.2s2.2,1,2.2,2.2C9.9,7.3,8.9,8.3,7.6,8.3z"/>
<ellipse id="XMLID_1_" class="st1" cx="7.6" cy="6.1" rx="3.1" ry="3.1"/>
<g id="XMLID_16_">
	<path id="XMLID_14_" class="st2" d="M9.6,4.3"/>
	<path id="XMLID_13_" class="st2" d="M9.6,4.3"/>
	<path id="XMLID_12_" class="st2" d="M9.6,4.3"/>
	<g id="XMLID_18_">
		<g id="XMLID_22_">
			<rect id="XMLID_10_" x="5.5" y="6.7" class="st3" width="4" height="0.3"/>
			<g id="XMLID_23_">
				<path id="XMLID_9_" class="st4" d="M8.3,5.9L8.3,5.9c0-0.2,0.2-0.4,0.3-0.4h0.5c0.2,0,0.3,0.2,0.3,0.4v0"/>
				<g id="XMLID_24_">
					<rect id="XMLID_7_" x="5.5" y="5.9" class="st5" width="4" height="0.8"/>
					<rect id="XMLID_6_" x="5.5" y="5.9" class="st6" width="2.8" height="1.4"/>
					<rect id="XMLID_5_" x="8.1" y="5.9" class="st1" width="0.1" height="1.4"/>
				</g>
			</g>
		</g>
		<g id="XMLID_19_">
			<rect id="XMLID_4_" x="9.4" y="4.3" class="st3" width="0.2" height="3.2"/>
			<rect id="XMLID_3_" x="5.3" y="5.7" class="st3" width="0.2" height="1.7"/>
		</g>
	</g>
	<polyline id="XMLID_2_" class="st7" points="8.3,5.9 8.4,7 8.3,7 8.3,5.9 	"/>
</g>
</svg>
