<?xml version="1.0" encoding="utf-8"?>
<!-- Generator: Adobe Illustrator 19.0.0, SVG Export Plug-In . SVG Version: 6.00 Build 0)  -->
<svg version="1.1" id="Layer_1" xmlns="http://www.w3.org/2000/svg" xmlns:xlink="http://www.w3.org/1999/xlink" x="0px" y="0px"
	 viewBox="0 0 15 15" style="enable-background:new 0 0 15 15;" xml:space="preserve">
<style type="text/css">
	.st0{fill:#00AEEF;}
	.st1{fill:#FFFFFF;}
	.st2{fill:#9FD0D3;}
	.st3{fill:#549193;}
	.st4{fill:#3A3B3B;}
	.st5{fill:#EF4823;}
	.st6{fill:#F3F3F3;}
	.st7{clip-path:url(#XMLID_34_);}
	.st8{fill:#E0E1E0;}
	.st9{fill:#E7E6E6;}
	.st10{clip-path:url(#XMLID_35_);}
	.st11{fill:#CFCFCE;}
	.st12{fill:#F7F8F8;}
	.st13{fill:#EAE0C8;}
	.st14{fill:#FAF7DD;}
	.st15{fill:#FAF3D2;}
</style>
<path id="XMLID_8_" class="st0" d="M7.6,2.5C5.6,2.5,4,4.2,4,6.2c0,2.2,3.6,6.3,3.6,6.3s3.6-4,3.6-6.3C11.3,4.2,9.7,2.5,7.6,2.5z
	 M7.6,8.3c-1.2,0-2.2-1-2.2-2.2s1-2.2,2.2-2.2s2.2,1,2.2,2.2C9.9,7.3,8.9,8.3,7.6,8.3z"/>
<ellipse id="XMLID_1_" class="st1" cx="7.6" cy="6.1" rx="3.1" ry="3.1"/>
<g id="XMLID_32_">
	<ellipse id="XMLID_30_" class="st2" cx="7.6" cy="6.1" rx="2.6" ry="2.6"/>
	<path id="XMLID_29_" class="st3" d="M5.6,7l2.5,1.7c0.5-0.1,1-0.3,1.3-0.6c0,0,0.4-0.4,0.6-0.8c0.2-0.4,0.2-0.6,0.3-0.9L9.3,5.4
		L5.6,7z"/>
	<g id="XMLID_33_">
		<polygon id="XMLID_28_" class="st4" points="5.9,5.4 5.6,7 7.6,7 7.6,5.4 		"/>
		<path id="XMLID_27_" class="st5" d="M7.6,7L7.6,7L5.6,7c0,0,0.3-1.6,0.4-1.6L5.6,7H7.6z"/>
		<polygon id="XMLID_26_" class="st4" points="9.3,5.4 9.6,7 7.6,7 7.6,5.4 		"/>
		<g id="XMLID_40_">
			<g id="XMLID_59_">
				<path id="XMLID_25_" class="st6" d="M9.5,6.9c0,0-0.3,0-0.5,0c-0.3,0-0.6,0-0.8-0.1c-0.2,0-0.4,0-0.4,0H7.6l0-0.1l0.1-0.2
					l0.4-0.1l0.5,0.1l0.5,0.2L9.5,6.9z"/>
				<g id="XMLID_60_">
					<defs>
						<path id="XMLID_18_" d="M9.5,6.9c0,0-0.3,0-0.5,0c-0.3,0-0.6,0-0.8-0.1c-0.2,0-0.4,0-0.4,0H7.6l0-0.1l0.1-0.2l0.4-0.1l0.5,0.1
							l0.5,0.2L9.5,6.9z"/>
					</defs>
					<clipPath id="XMLID_34_">
						<use xlink:href="#XMLID_18_"  style="overflow:visible;"/>
					</clipPath>
					<g id="XMLID_62_" class="st7">
						<g id="XMLID_73_">
							<path id="XMLID_24_" class="st8" d="M7.6,6.9C7.7,6.6,8,6.6,8.1,6.7c0.1,0,0.5,0.1,0.7,0.1c0.3,0,0.4,0,0.4,0l0,0
								c0,0-0.1,0-0.4,0c-0.3,0-0.6-0.1-0.7-0.1C8.1,6.6,7.7,6.6,7.6,6.9L7.6,6.9z"/>
						</g>
						<g id="XMLID_71_">
							<path id="XMLID_23_" class="st8" d="M7.6,6.9c0-0.1,0.1-0.2,0.3-0.2c0.1,0,0.3,0,0.3,0l0,0c0.2,0,0.4,0.1,0.7,0.1
								c0.3,0,0.4,0,0.4,0l0,0l0,0l0,0c0,0-0.1,0-0.4,0c-0.3,0-0.5-0.1-0.7-0.1l0,0c-0.1,0-0.2,0-0.3,0C7.7,6.7,7.6,6.8,7.6,6.9
								L7.6,6.9z"/>
						</g>
						<g id="XMLID_69_">
							<path id="XMLID_22_" class="st8" d="M7.6,6.9c0.1-0.1,0.2-0.1,0.3-0.2c0.1,0,0.2,0,0.3,0c0.1,0,0.6,0.2,0.8,0.2
								c0.2,0,0.4-0.1,0.4-0.1l0,0c0,0-0.1,0.1-0.4,0.1c-0.2,0-0.7-0.1-0.8-0.2C8,6.7,7.7,6.7,7.6,6.9L7.6,6.9z"/>
						</g>
						<g id="XMLID_67_">
							<path id="XMLID_21_" class="st8" d="M9.1,6.9C9.1,6.9,9.1,6.9,9.1,6.9c0.2,0,0.4,0,0.4,0l0,0C9.5,6.9,9.3,6.9,9.1,6.9
								c-0.2,0-0.5-0.1-0.7-0.1C8,6.7,7.8,6.7,7.6,6.9l0,0C7.8,6.8,8,6.7,8.4,6.9C8.5,6.9,8.9,6.9,9.1,6.9z"/>
						</g>
						<g id="XMLID_65_">
							<path id="XMLID_20_" class="st8" d="M8.5,6.9L8.5,6.9c0,0-0.3-0.1-0.4-0.1c0,0-0.1,0-0.2,0c-0.1,0-0.2,0-0.2,0.1l0,0
								c0.1-0.1,0.3-0.1,0.4-0.1C8.2,6.9,8.5,6.9,8.5,6.9z"/>
						</g>
						<g id="XMLID_63_">
							<path id="XMLID_19_" class="st8" d="M7.8,6.9c0,0,0-0.1,0.1-0.1l0,0C7.8,6.8,7.8,6.9,7.8,6.9L7.8,6.9z"/>
						</g>
					</g>
				</g>
			</g>
			<g id="XMLID_42_">
				<polygon id="XMLID_17_" class="st9" points="9,5.3 9.3,5.4 9.5,6.9 9.2,6.7 				"/>
				<g id="XMLID_43_">
					<defs>
						<polygon id="XMLID_10_" points="9,5.3 9.3,5.4 9.5,6.9 9.2,6.7 						"/>
					</defs>
					<clipPath id="XMLID_35_">
						<use xlink:href="#XMLID_10_"  style="overflow:visible;"/>
					</clipPath>
					<g id="XMLID_45_" class="st10">
						<g id="XMLID_56_">
							<rect id="XMLID_16_" x="9.1" y="5.3" class="st11" width="0" height="1.6"/>
						</g>
						<g id="XMLID_54_">
							<rect id="XMLID_15_" x="9.2" y="5.3" class="st11" width="0" height="1.6"/>
						</g>
						<g id="XMLID_52_">
							<rect id="XMLID_14_" x="9.2" y="5.3" class="st11" width="0" height="1.7"/>
						</g>
						<g id="XMLID_50_">
							<rect id="XMLID_13_" x="9.3" y="5.2" class="st11" width="0" height="1.7"/>
						</g>
						<g id="XMLID_48_">
							<rect id="XMLID_12_" x="9.3" y="5.3" class="st11" width="0" height="1.7"/>
						</g>
						<g id="XMLID_46_">
							<rect id="XMLID_11_" x="9.4" y="5.3" class="st11" width="0" height="1.7"/>
						</g>
					</g>
				</g>
			</g>
			<path id="XMLID_9_" class="st12" d="M7.6,5.4c0,0,0-0.3,0.5-0.2C8.5,5.2,8.9,5.3,9,5.2l0.3,1.5c0,0,0,0.1-0.2,0.1
				c-0.2,0-0.5,0-0.8-0.1c-0.3-0.1-0.6,0-0.6,0.2V5.4z"/>
		</g>
		<path id="XMLID_7_" class="st5" d="M7.6,7L7.6,7l2.1,0c0,0-0.3-1.6-0.4-1.6L9.6,7H7.6z"/>
		<path id="XMLID_6_" class="st13" d="M7.8,6.9C7.8,6.9,7.8,6.9,7.8,6.9l-0.4,0c0,0,0,0,0,0l0,0c0,0,0,0,0,0L7.8,6.9
			C7.8,6.9,7.8,6.9,7.8,6.9L7.8,6.9z"/>
		<path id="XMLID_5_" class="st5" d="M7.4,7c0,0,0.1,0.2,0.2,0.2C7.8,7.1,7.8,7,7.8,7H7.4z"/>
		<path id="XMLID_4_" class="st4" d="M7.4,6.9c0,0,0,0.1,0.2,0.1s0.2-0.1,0.2-0.1H7.4z"/>
		<path id="XMLID_3_" class="st14" d="M7.6,5.3c0,0,0.1-0.2,0.4-0.2c0.3,0,0.8,0.2,1,0.1l0.3,0.3l0.3,1.5c0,0-0.8,0-1.2-0.1
			C8,6.8,7.8,6.8,7.8,6.9H7.6L7.6,5.3z"/>
		<path id="XMLID_2_" class="st15" d="M7.6,5.3c0,0-0.1-0.2-0.4-0.2c-0.3,0-0.8,0.2-1,0.1L6,5.4L5.7,6.9c0,0,0.8,0,1.2-0.1
			c0.4-0.1,0.5-0.1,0.6,0h0.2L7.6,5.3z"/>
	</g>
</g>
</svg>
