<?xml version="1.0" encoding="utf-8"?>
<!-- Generator: Adobe Illustrator 19.0.0, SVG Export Plug-In . SVG Version: 6.00 Build 0)  -->
<svg version="1.1" id="Layer_1" xmlns="http://www.w3.org/2000/svg" xmlns:xlink="http://www.w3.org/1999/xlink" x="0px" y="0px"
	 viewBox="0 0 15 15" style="enable-background:new 0 0 15 15;" xml:space="preserve">
<style type="text/css">
	.st0{fill:#939598;}
	.st1{fill:#FFFFFF;}
	.st2{fill:#F7941E;}
	.st3{fill:#F1E4C4;}
</style>
<path id="XMLID_8_" class="st0" d="M7.6,2.5C5.6,2.5,4,4.2,4,6.2c0,2.2,3.6,6.3,3.6,6.3s3.6-4,3.6-6.3C11.3,4.2,9.7,2.5,7.6,2.5z
	 M7.6,8.3c-1.2,0-2.2-1-2.2-2.2s1-2.2,2.2-2.2s2.2,1,2.2,2.2C9.9,7.3,8.9,8.3,7.6,8.3z"/>
<ellipse id="XMLID_1_" class="st1" cx="7.6" cy="6.1" rx="3.1" ry="3.1"/>
<g id="XMLID_6_">
	<ellipse id="XMLID_4_" class="st2" cx="7.6" cy="6.1" rx="2.6" ry="2.5"/>
	<g id="XMLID_7_">
		<path id="XMLID_3_" class="st3" d="M8.7,6.3c0,0.6-0.6,1.1-1.3,1.1c-0.2,0-0.4,0-0.6-0.1c-0.1,0-0.8,0-0.9,0
			C5.9,7.2,6.4,6.9,6.4,6.8C6.3,6.7,6.2,6.5,6.2,6.3c0-0.6,0.6-1.1,1.3-1.1C8.2,5.1,8.7,5.7,8.7,6.3z"/>
		<path id="XMLID_2_" class="st1" d="M7.2,5.3c0,0.5,0.4,0.9,1,0.9c0.2,0,0.3,0,0.4-0.1c0,0,0.6,0,0.7,0c0,0-0.3-0.3-0.3-0.3
			c0.1-0.1,0.1-0.3,0.1-0.4c0-0.5-0.4-0.9-1-0.9S7.2,4.9,7.2,5.3z"/>
	</g>
</g>
</svg>
