<?xml version="1.0" encoding="utf-8"?>
<!-- Generator: Adobe Illustrator 19.0.0, SVG Export Plug-In . SVG Version: 6.00 Build 0)  -->
<svg version="1.1" id="Layer_1" xmlns="http://www.w3.org/2000/svg" xmlns:xlink="http://www.w3.org/1999/xlink" x="0px" y="0px"
	 viewBox="0 0 15 15" style="enable-background:new 0 0 15 15;" xml:space="preserve">
<style type="text/css">
	.st0{fill:#39B54A;}
	.st1{fill:#FFFFFF;}
	.st2{fill:#102F41;}
	.st3{fill:none;}
	.st4{fill:#F15D43;}
</style>
<path id="XMLID_8_" class="st0" d="M7.6,2.5C5.6,2.5,4,4.2,4,6.2c0,2.2,3.6,6.3,3.6,6.3s3.6-4,3.6-6.3C11.3,4.2,9.7,2.5,7.6,2.5z
	 M7.6,8.3c-1.2,0-2.2-1-2.2-2.2c0-1.2,1-2.2,2.2-2.2c1.2,0,2.2,1,2.2,2.2C9.9,7.3,8.9,8.3,7.6,8.3z"/>
<ellipse id="XMLID_1_" class="st1" cx="7.6" cy="6.1" rx="3.1" ry="3.1"/>
<g id="XMLID_15_">
	<g id="XMLID_16_">
		<ellipse id="XMLID_12_" class="st2" cx="7.7" cy="6" rx="2.1" ry="2"/>
		<g id="XMLID_17_">
			<path id="XMLID_11_" class="st3" d="M7.4,5.1c0-0.1,0.1-0.1,0.1-0.2c0.1-0.1,0.1-0.1,0.2-0.2C7.2,4.5,7,4.3,7,4.1
				c0,0,0.1,0,0.1,0c0.1,0.2,0.2,0.4,0.6,0.6c0.2-0.2,0.4-0.4,0.6-0.6c0,0,0.1,0,0.1,0C8.3,4.3,8,4.5,7.8,4.7C8.2,4.9,8.6,4.9,9,4.9
				C9.2,5,9.4,5,9.5,5c0,0,0.1,0.1,0.1,0.1C9.4,5.1,9.2,5.1,9,5.1C8.6,5,8.2,5,7.8,4.8C7.7,4.9,7.6,4.9,7.6,5c0,0-0.1,0.1-0.1,0.1
				c0.8,0.4,1.7,0.9,2.2,1.6c0,0,0,0.1-0.1,0.1C9.1,6.2,8.3,5.6,7.4,5.3c0,0,0,0,0,0C7.3,5.4,7.2,5.5,7.2,5.6C7.8,6,8.1,7.1,8.3,7.9
				c0,0-0.1,0-0.1,0C8,7.2,7.7,6.1,7.1,5.7C6.8,6.3,6.6,6.8,6.5,7.4c0,0.1,0,0.2,0,0.3c0,0-0.1-0.1-0.1-0.1c0-0.1,0-0.2,0-0.3
				C6.5,6.8,6.7,6.2,7,5.7c-0.4-0.1-0.8,0-1.1,0.2C5.8,6,5.6,6.1,5.5,6.2c0-0.1,0-0.1,0-0.2c0.1-0.1,0.2-0.2,0.3-0.2
				C6.2,5.5,6.6,5.4,7,5.6c0.1-0.1,0.2-0.3,0.2-0.4C6.8,5,6.3,4.9,5.9,4.8C6,4.8,6,4.7,6,4.7C6.4,4.8,6.9,4.9,7.4,5.1z"/>
			<path id="XMLID_10_" class="st4" d="M7.5,5.2c0,0,0.1-0.1,0.1-0.1c0.1-0.1,0.1-0.1,0.2-0.2C8.2,5,8.6,5,9,5.1
				c0.2,0,0.4,0,0.6,0.1C9.7,5.4,9.8,5.7,9.8,6c0,0.3-0.1,0.5-0.2,0.7C9.2,6.1,8.3,5.5,7.5,5.2z"/>
			<path id="XMLID_9_" class="st4" d="M5.9,5.9C6.2,5.7,6.6,5.5,7,5.7C6.7,6.2,6.5,6.8,6.4,7.4c0,0.1,0,0.2,0,0.3
				C5.9,7.3,5.6,6.8,5.5,6.2C5.6,6.1,5.8,6,5.9,5.9z"/>
			<path id="XMLID_7_" class="st4" d="M7.2,5.6c0.1-0.1,0.2-0.3,0.2-0.4c0,0,0,0,0,0c0.9,0.4,1.7,0.9,2.2,1.6
				c-0.3,0.5-0.7,0.9-1.3,1C8.1,7.1,7.8,6,7.2,5.6z"/>
			<path id="XMLID_6_" class="st4" d="M7.1,5.7C7.7,6.1,8,7.2,8.2,8C8,8,7.8,8,7.7,8C7.2,8,6.8,7.9,6.5,7.7c0-0.1,0-0.2,0-0.3
				C6.6,6.8,6.8,6.3,7.1,5.7z"/>
			<path id="XMLID_5_" class="st4" d="M7.6,4.8C7.6,4.8,7.5,4.9,7.5,4.9c0,0.1-0.1,0.1-0.1,0.2C6.9,4.9,6.4,4.8,6,4.7
				c0.3-0.3,0.6-0.5,1-0.6C7,4.3,7.2,4.5,7.6,4.8z"/>
			<path id="XMLID_4_" class="st4" d="M7.7,4.7C7.3,4.5,7.2,4.3,7.1,4.1C7.3,4,7.5,4,7.7,4c0.2,0,0.4,0,0.6,0.1
				C8.1,4.2,7.9,4.4,7.7,4.7z"/>
			<path id="XMLID_3_" class="st4" d="M7.8,4.7C8,4.5,8.3,4.3,8.4,4.1C8.9,4.3,9.3,4.6,9.5,5C9.4,5,9.2,5,9,4.9
				C8.6,4.9,8.2,4.9,7.8,4.7z"/>
			<path id="XMLID_2_" class="st4" d="M7,5.6c-0.4-0.2-0.9,0-1.2,0.2C5.7,5.9,5.6,5.9,5.5,6c0,0,0,0,0,0c0-0.4,0.2-0.9,0.4-1.2
				C6.3,4.9,6.8,5,7.3,5.2C7.2,5.3,7.1,5.5,7,5.6z"/>
		</g>
	</g>
</g>
</svg>
