<?xml version="1.0" encoding="utf-8"?>
<!-- Generator: Adobe Illustrator 19.0.0, SVG Export Plug-In . SVG Version: 6.00 Build 0)  -->
<svg version="1.1" id="Layer_1" xmlns="http://www.w3.org/2000/svg" xmlns:xlink="http://www.w3.org/1999/xlink" x="0px" y="0px"
	 viewBox="-298 389 15 15" style="enable-background:new -298 389 15 15;" xml:space="preserve">
<style type="text/css">
	.st0{fill:#A5F9AB;}
	.st1{fill:#FFFFFF;}
	.st2{fill:#E815C0;}
	.st3{font-family:'Quicksand-Regular';}
	.st4{font-size:4.9853px;}
</style>
<path id="XMLID_8_" class="st0" d="M-290.4,391.5c-2,0-3.6,1.7-3.6,3.7c0,2.2,3.6,6.3,3.6,6.3s3.6-4,3.6-6.3
	C-286.7,393.2-288.3,391.5-290.4,391.5z M-290.4,397.3c-1.2,0-2.2-1-2.2-2.2c0-1.2,1-2.2,2.2-2.2c1.2,0,2.2,1,2.2,2.2
	C-288.1,396.3-289.1,397.3-290.4,397.3z"/>
<ellipse id="XMLID_1_" class="st1" cx="-290.4" cy="395.1" rx="3.1" ry="3.1"/>
<text transform="matrix(0.8459 0 0 1 -292.8126 396.707)" class="st2 st3 st4">All</text>
</svg>
