<?xml version="1.0" encoding="utf-8"?>
<!-- Generator: Adobe Illustrator 19.0.0, SVG Export Plug-In . SVG Version: 6.00 Build 0)  -->
<svg version="1.1" id="Layer_1" xmlns="http://www.w3.org/2000/svg" xmlns:xlink="http://www.w3.org/1999/xlink" x="0px" y="0px"
	 viewBox="0 0 15 15" style="enable-background:new 0 0 15 15;" xml:space="preserve">
<style type="text/css">
	.st0{fill:#FBB040;}
	.st1{fill:#FFFFFF;}
	.st2{fill:#1C75BC;}
</style>
<path id="XMLID_8_" class="st0" d="M7.6,2.5C5.6,2.5,4,4.2,4,6.2c0,2.2,3.6,6.3,3.6,6.3s3.6-4,3.6-6.3C11.3,4.2,9.7,2.5,7.6,2.5z
	 M7.6,8.3c-1.2,0-2.2-1-2.2-2.2c0-1.2,1-2.2,2.2-2.2c1.2,0,2.2,1,2.2,2.2C9.9,7.3,8.9,8.3,7.6,8.3z"/>
<ellipse id="XMLID_1_" class="st1" cx="7.6" cy="6.1" rx="3.1" ry="3.1"/>
<g id="XMLID_5_">
	<path id="XMLID_26_" class="st2" d="M7,5c0-0.2-0.1-1.2-0.1-1.2l0,0l0,0l-0.1,1c0,0,0,0,0,0c0,0,0,0,0,0l-0.1-1l0,0l0,0l-0.1,1
		c0,0,0,0,0,0c0,0,0,0,0,0l-0.1-1l0,0l0,0l-0.1,1c0,0,0,0,0,0c0,0,0,0,0,0l-0.1-1l0,0l0,0c0,0-0.1,1.1-0.1,1.2c0,0,0,0,0,0
		c0.1,0,0.2,0.1,0.3,0.2C6.6,5.5,6.4,7.6,6.3,8c0,0.1,0,0.3,0.2,0.4l0,0C6.8,8.3,6.8,8.1,6.8,8C6.8,7.6,6.6,5.5,6.7,5.3
		C6.8,5.1,6.9,5.1,7,5C7,5,7,5,7,5z M6.4,8c0-0.1,0-0.1,0-0.1s0,0.1,0,0.2c0,0.1,0,0.1,0.2,0.2C6.4,8.2,6.4,8.1,6.4,8z M6.9,5
		C6.9,5,6.7,5.1,6.6,5.3C6.6,5.3,6.7,5.1,6.9,5C6.9,5,6.9,5,6.9,5c0-0.1,0-0.2,0-0.3C6.9,4.8,7,5,6.9,5C7,5,6.9,5,6.9,5z"/>
	<path id="XMLID_12_" class="st2" d="M9.1,5.3c0.2-0.1,0.3-0.4,0.3-0.7c0-0.5-0.3-0.8-0.7-0.8C8.3,3.8,8,4.1,8,4.6
		c0,0.3,0.1,0.5,0.3,0.7c0,0,0,0,0,0c0,0,0,0,0,0c0.1,0,0.2,0.1,0.3,0.2c0.1,0.2-0.1,2-0.2,2.4c0,0.1,0,0.3,0.2,0.4l0,0
		C8.9,8.3,9,8.1,9,8C8.9,7.6,8.7,5.7,8.8,5.6C8.9,5.4,9,5.3,9.1,5.3C9.1,5.3,9.1,5.3,9.1,5.3C9.1,5.3,9.1,5.3,9.1,5.3z M8.4,5.3
		C8.4,5.3,8.3,5.3,8.4,5.3C8.3,5.3,8.3,5.3,8.4,5.3C8.2,5.1,8.1,4.9,8.1,4.6C8.1,4.9,8.2,5.1,8.4,5.3C8.4,5.2,8.4,5.2,8.4,5.3
		C8.4,5.2,8.4,5.3,8.4,5.3c0.2,0.1,0.3,0.1,0.3,0.2C8.6,5.4,8.4,5.3,8.4,5.3z M8.9,8.1c0-0.1,0-0.2,0-0.2s0,0,0,0.1
		c0,0.1,0,0.2-0.2,0.4C8.8,8.2,8.9,8.2,8.9,8.1z M9.1,5.3c0,0-0.1,0-0.2,0.1C9,5.3,9.1,5.3,9.1,5.3C9.1,5.3,9.1,5.3,9.1,5.3
		C9.1,5.3,9.1,5.3,9.1,5.3z M8.7,3.8C8.7,3.8,8.7,3.8,8.7,3.8c0.4,0,0.7,0.3,0.7,0.8c0,0.2-0.1,0.3-0.1,0.5c0.1-0.1,0.1-0.3,0.1-0.4
		C9.4,4.2,9.1,3.8,8.7,3.8z"/>
</g>
</svg>
